<svg xmlns="http://www.w3.org/2000/svg" width="498.54" height="280.37" viewBox="0 0 498.54 280.37">
  <g id="Group_4306" data-name="Group 4306" transform="translate(-1679.353 -674.493)">
    <g id="Group_132" data-name="Group 132" transform="translate(1676.948 674.493)">
      <g id="Group_131" data-name="Group 131" transform="translate(0 0)">
        <path id="Path_168" data-name="Path 168" d="M1705.2,954.726s-42.234-65.466,8.43-135.936c78.141-108.687,180.93-40.016,220.9-103.815,54.51-87,260.869-25.853,226.417,108-16.672,64.777,50.74,67.132,16.391,131.883Z" transform="translate(-1686.292 -674.493)" fill="#d9e9fe"/>
        <path id="Path_169" data-name="Path 169" d="M3443.745,1501.467c-6.855-12.333-28.141-2.675-28.141-2.675s-9.416,26.887-13.686,28.53,3.562-24.56,3.562-24.56c-8.742,1.289-27.907,17.145-27.907,17.145s8.064,26.649,3.521,27.19-5.936-23.961-5.936-23.961c-7.648,4.526-12.972,16.076-12.972,16.076-5.75,18.086,17.771,24.536,17.771,24.536a45.273,45.273,0,0,1-.527,21.469h0a32.827,32.827,0,0,0-1.306,6.006l2.252-.558q.051-.975.178-1.9a.015.015,0,0,1,0-.011c0-.009,0-.018,0-.027.068-.386.167-.937.294-1.608v0s0,0,0,0c.354-1.518.573-2.628.689-3.42a.033.033,0,0,0,0-.007c1.015-4.74,2.62-10.986,4.315-12.632a4.507,4.507,0,0,1-.738-.914l.738.914c5.9,7.307,25.523,3.908,35.718-.956s4.763-6.734-2.239-10.218-18.8.814-22.856-.227.7-4.265,7.994-5.488,12.651,5.051,24.492,3.286,15.263-25.7,15.263-25.7c-7.373,4.457-22.786,3.6-24.019.981s20.042-7.6,23.142-9.241S3450.6,1513.8,3443.745,1501.467Z" transform="translate(-3016.492 -1327.194)" fill="#9fbbff"/>
        <path id="Path_170" data-name="Path 170" d="M3087.58,843.369c-5.162-9.286-21.187-2.014-21.187-2.014s-7.09,20.244-10.3,21.481,2.682-18.492,2.682-18.492c-6.583.971-21.012,12.909-21.012,12.909s6.072,20.065,2.651,20.472-4.469-18.041-4.469-18.041c-5.759,3.407-9.767,12.1-9.767,12.1-4.33,13.618,13.38,18.474,13.38,18.474a34.083,34.083,0,0,1-.4,16.165h0a24.728,24.728,0,0,0-.983,4.522l1.7-.42c.026-.489.07-.967.134-1.431a.009.009,0,0,1,0-.008.194.194,0,0,1,0-.02c.052-.291.126-.705.221-1.211v0s0,0,0,0c.267-1.143.431-1.979.519-2.575a.021.021,0,0,0,0-.005c.764-3.569,1.973-8.271,3.249-9.511a3.384,3.384,0,0,1-.556-.688l.556.688c4.444,5.5,19.217,2.943,26.893-.72s3.586-5.07-1.686-7.693-14.154.613-17.209-.171.525-3.211,6.019-4.132,9.525,3.8,18.44,2.475,11.492-19.354,11.492-19.354c-5.551,3.356-17.156,2.71-18.084.739s15.09-5.719,17.424-6.958S3092.741,852.654,3087.58,843.369Z" transform="translate(-2749.44 -805.043)" fill="#9fbbff"/>
        <g id="Group_11" data-name="Group 11" transform="translate(60.548 52.006)">
          <path id="Path_171" data-name="Path 171" d="M2111.992,1040.644l-59.155,42.274-56.356-78.865v0l-23.746-33.229,59.155-42.271,44.338,62.044Z" transform="translate(-1972.734 -928.55)" fill="#7ba2ff"/>
          <g id="Group_10" data-name="Group 10" transform="translate(10.14 9.658)">
            <path id="Path_172" data-name="Path 172" d="M2140.2,1076.486,2094.27,1109.3l-72-100.753,45.926-32.818Zm-41.291,27.392,34.634-24.75a5.232,5.232,0,0,0,1.215-7.3L2070.9,982.465a5.326,5.326,0,0,0-7.43-1.237l-34.5,24.651a5.282,5.282,0,0,0-1.226,7.368l63.9,89.422A5.206,5.206,0,0,0,2098.9,1103.879Z" transform="translate(-2022.272 -975.733)" fill="#c0d8fb"/>
          </g>
          <path id="Path_173" data-name="Path 173" d="M2238.941,1251.817a15.187,15.187,0,1,1,21.186,3.526A15.186,15.186,0,0,1,2238.941,1251.817Z" transform="translate(-2182.196 -1166.542)" fill="#c0d8fb"/>
        </g>
        <g id="Group_13" data-name="Group 13" transform="translate(151.94 19.181)">
          <path id="Path_174" data-name="Path 174" d="M2518.08,903.162l-71.228,14.6L2427.4,822.8v0l-8.2-40.01,71.226-14.595,15.309,74.706Z" transform="translate(-2419.197 -768.193)" fill="#7ba2ff"/>
          <g id="Group_12" data-name="Group 12" transform="translate(9.183 7.571)">
            <path id="Path_175" data-name="Path 175" d="M2544.211,926.492l-55.3,11.331-24.857-121.314,55.3-11.331Zm-48.858,8.256,41.7-8.545a5.232,5.232,0,0,0,4.075-6.176l-22.048-107.6a5.326,5.326,0,0,0-6.287-4.148l-41.536,8.511a5.281,5.281,0,0,0-4.114,6.234l22.062,107.67A5.206,5.206,0,0,0,2495.353,934.747Z" transform="translate(-2464.056 -805.178)" fill="#c0d8fb"/>
          </g>
          <circle id="Ellipse_1" data-name="Ellipse 1" cx="15.187" cy="15.187" r="15.187" transform="translate(32.882 87.788) rotate(-85.312)" fill="#c0d8fb"/>
        </g>
        <g id="Group_42" data-name="Group 42" transform="translate(370.43 216.009)">
          <path id="Path_233" data-name="Path 233" d="M3550.289,2018.484v2.551a.977.977,0,0,1-.168.549.991.991,0,0,1-.461.368.993.993,0,0,1-.354.066h-40.642a.987.987,0,0,1-.982-.933c0-.017,0-.034,0-.051v-2.551c0-.017,0-.034,0-.051a.987.987,0,0,1,.982-.933h40.642a.964.964,0,0,1,.173.016.943.943,0,0,1,.18.051.991.991,0,0,1,.461.368A.976.976,0,0,1,3550.289,2018.484Z" transform="translate(-3503.355 -1958.592)" fill="#afcdfb"/>
          <path id="Path_234" data-name="Path 234" d="M3527.658,2017.5h-19.1a.932.932,0,0,0-.877.933c0,.017,0,.034,0,.051v2.551c0,.017,0,.034,0,.051a.932.932,0,0,0,.877.933h21.773A8.1,8.1,0,0,1,3527.658,2017.5Z" transform="translate(-3503.355 -1958.592)" fill="#77a4e5"/>
          <rect id="Rectangle_124" data-name="Rectangle 124" width="0.462" height="4.518" transform="translate(41.526 58.909)" fill="#77a4e5"/>
          <rect id="Rectangle_125" data-name="Rectangle 125" width="0.462" height="4.518" transform="translate(39.963 58.909)" fill="#77a4e5"/>
          <rect id="Rectangle_126" data-name="Rectangle 126" width="0.462" height="4.518" transform="translate(38.088 58.909)" fill="#77a4e5"/>
          <rect id="Rectangle_127" data-name="Rectangle 127" width="0.462" height="4.518" transform="translate(35.214 58.909)" fill="#77a4e5"/>
          <rect id="Rectangle_128" data-name="Rectangle 128" width="0.462" height="4.518" transform="translate(32.175 58.909)" fill="#77a4e5"/>
          <rect id="Rectangle_129" data-name="Rectangle 129" width="0.462" height="4.518" transform="translate(27.516 58.909)" fill="#77a4e5"/>
          <rect id="Rectangle_130" data-name="Rectangle 130" width="0.462" height="4.518" transform="translate(43.015 58.909)" fill="#77a4e5"/>
          <rect id="Rectangle_131" data-name="Rectangle 131" width="0.462" height="4.518" transform="translate(43.998 58.909)" fill="#77a4e5"/>
          <rect id="Rectangle_132" data-name="Rectangle 132" width="0.462" height="4.518" transform="translate(44.948 58.909)" fill="#77a4e5"/>
          <path id="Path_235" data-name="Path 235" d="M3709.615,2017.5v4.519h.289a.962.962,0,0,0,.173-.016v-4.487a.962.962,0,0,0-.173-.016Z" transform="translate(-3663.953 -1958.592)" fill="#77a4e5"/>
          <path id="Path_236" data-name="Path 236" d="M3712.752,2017.825v4.385a.99.99,0,0,0,.461-.368v-3.65A.99.99,0,0,0,3712.752,2017.825Z" transform="translate(-3666.448 -1958.85)" fill="#77a4e5"/>
          <path id="Path_237" data-name="Path 237" d="M3541.245,1996.412v2.552a.972.972,0,0,1-.168.549.99.99,0,0,1-.462.368.927.927,0,0,1-.179.05.964.964,0,0,1-.174.016H3499.62a.987.987,0,0,1-.982-.933c0-.017,0-.033,0-.05v-2.552c0-.017,0-.034,0-.051a.987.987,0,0,1,.982-.932h40.642a.975.975,0,0,1,.174.016.871.871,0,0,1,.179.051.985.985,0,0,1,.462.368A.971.971,0,0,1,3541.245,1996.412Z" transform="translate(-3496.163 -1941.039)" fill="#afcdfb"/>
          <path id="Path_238" data-name="Path 238" d="M3518.614,1995.429h-19.1a.932.932,0,0,0-.877.932c0,.017,0,.034,0,.051v2.552c0,.017,0,.034,0,.05a.932.932,0,0,0,.877.933h21.773A8.094,8.094,0,0,1,3518.614,1995.429Z" transform="translate(-3496.163 -1941.039)" fill="#77a4e5"/>
          <rect id="Rectangle_133" data-name="Rectangle 133" width="0.462" height="4.518" transform="translate(39.675 54.39)" fill="#77a4e5"/>
          <rect id="Rectangle_134" data-name="Rectangle 134" width="0.462" height="4.518" transform="translate(38.111 54.39)" fill="#77a4e5"/>
          <rect id="Rectangle_135" data-name="Rectangle 135" width="0.462" height="4.518" transform="translate(36.236 54.39)" fill="#77a4e5"/>
          <rect id="Rectangle_136" data-name="Rectangle 136" width="0.462" height="4.518" transform="translate(33.362 54.39)" fill="#77a4e5"/>
          <rect id="Rectangle_137" data-name="Rectangle 137" width="0.462" height="4.518" transform="translate(30.323 54.39)" fill="#77a4e5"/>
          <rect id="Rectangle_138" data-name="Rectangle 138" width="0.462" height="4.518" transform="translate(25.664 54.39)" fill="#77a4e5"/>
          <rect id="Rectangle_139" data-name="Rectangle 139" width="0.462" height="4.518" transform="translate(41.163 54.39)" fill="#77a4e5"/>
          <rect id="Rectangle_140" data-name="Rectangle 140" width="0.462" height="4.518" transform="translate(42.147 54.39)" fill="#77a4e5"/>
          <rect id="Rectangle_141" data-name="Rectangle 141" width="0.462" height="4.518" transform="translate(43.096 54.39)" fill="#77a4e5"/>
          <path id="Path_239" data-name="Path 239" d="M3700.57,1995.429v4.518h.289a.955.955,0,0,0,.173-.016v-4.487a.966.966,0,0,0-.173-.016Z" transform="translate(-3656.76 -1941.039)" fill="#77a4e5"/>
          <path id="Path_240" data-name="Path 240" d="M3703.706,1995.753v4.385a.99.99,0,0,0,.461-.368v-3.65A.989.989,0,0,0,3703.706,1995.753Z" transform="translate(-3659.254 -1941.296)" fill="#77a4e5"/>
          <path id="Path_241" data-name="Path 241" d="M3551.587,1974.235v2.551a.974.974,0,0,1-.168.549.991.991,0,0,1-.461.368.9.9,0,0,1-.18.05.944.944,0,0,1-.173.016h-40.641a.987.987,0,0,1-.983-.933c0-.017,0-.034,0-.051v-2.551c0-.017,0-.034,0-.051a.987.987,0,0,1,.983-.933H3550.6a.966.966,0,0,1,.173.016.887.887,0,0,1,.18.051.987.987,0,0,1,.461.368A.976.976,0,0,1,3551.587,1974.235Z" transform="translate(-3504.388 -1923.401)" fill="#afcdfb"/>
          <path id="Path_242" data-name="Path 242" d="M3528.956,1973.252h-19.1a.933.933,0,0,0-.877.933c0,.017,0,.034,0,.051v2.551c0,.017,0,.034,0,.051a.933.933,0,0,0,.877.933h21.773A8.1,8.1,0,0,1,3528.956,1973.252Z" transform="translate(-3504.388 -1923.401)" fill="#77a4e5"/>
          <rect id="Rectangle_142" data-name="Rectangle 142" width="0.462" height="4.518" transform="translate(41.792 49.851)" fill="#77a4e5"/>
          <rect id="Rectangle_143" data-name="Rectangle 143" width="0.462" height="4.518" transform="translate(40.228 49.851)" fill="#77a4e5"/>
          <rect id="Rectangle_144" data-name="Rectangle 144" width="0.462" height="4.518" transform="translate(38.353 49.851)" fill="#77a4e5"/>
          <rect id="Rectangle_145" data-name="Rectangle 145" width="0.462" height="4.518" transform="translate(35.479 49.851)" fill="#77a4e5"/>
          <rect id="Rectangle_146" data-name="Rectangle 146" width="0.462" height="4.518" transform="translate(32.44 49.851)" fill="#77a4e5"/>
          <rect id="Rectangle_147" data-name="Rectangle 147" width="0.462" height="4.518" transform="translate(27.781 49.851)" fill="#77a4e5"/>
          <rect id="Rectangle_148" data-name="Rectangle 148" width="0.462" height="4.518" transform="translate(43.28 49.851)" fill="#77a4e5"/>
          <rect id="Rectangle_149" data-name="Rectangle 149" width="0.462" height="4.518" transform="translate(44.264 49.851)" fill="#77a4e5"/>
          <rect id="Rectangle_150" data-name="Rectangle 150" width="0.462" height="4.518" transform="translate(45.213 49.851)" fill="#77a4e5"/>
          <path id="Path_243" data-name="Path 243" d="M3710.912,1973.252v4.518h.289a.947.947,0,0,0,.174-.016v-4.487a.968.968,0,0,0-.174-.016Z" transform="translate(-3664.984 -1923.401)" fill="#77a4e5"/>
          <path id="Path_244" data-name="Path 244" d="M3714.048,1973.576v4.386a.989.989,0,0,0,.462-.368v-3.65A.99.99,0,0,0,3714.048,1973.576Z" transform="translate(-3667.478 -1923.659)" fill="#77a4e5"/>
          <path id="Path_245" data-name="Path 245" d="M3541.245,1952.163v2.552a.972.972,0,0,1-.168.549.988.988,0,0,1-.462.368.9.9,0,0,1-.179.051.987.987,0,0,1-.174.016H3499.62a.987.987,0,0,1-.982-.933c0-.017,0-.033,0-.051v-2.552c0-.017,0-.034,0-.05a.987.987,0,0,1,.982-.933h40.642a.964.964,0,0,1,.174.016.878.878,0,0,1,.179.05.985.985,0,0,1,.462.368A.972.972,0,0,1,3541.245,1952.163Z" transform="translate(-3496.163 -1905.848)" fill="#afcdfb"/>
          <path id="Path_246" data-name="Path 246" d="M3518.614,1951.18h-19.1a.932.932,0,0,0-.877.933c0,.017,0,.034,0,.05v2.552c0,.017,0,.034,0,.051a.932.932,0,0,0,.877.933h21.773A8.094,8.094,0,0,1,3518.614,1951.18Z" transform="translate(-3496.163 -1905.848)" fill="#77a4e5"/>
          <rect id="Rectangle_151" data-name="Rectangle 151" width="0.462" height="4.518" transform="translate(39.675 45.333)" fill="#77a4e5"/>
          <rect id="Rectangle_152" data-name="Rectangle 152" width="0.462" height="4.518" transform="translate(38.111 45.333)" fill="#77a4e5"/>
          <rect id="Rectangle_153" data-name="Rectangle 153" width="0.462" height="4.518" transform="translate(36.236 45.333)" fill="#77a4e5"/>
          <rect id="Rectangle_154" data-name="Rectangle 154" width="0.462" height="4.518" transform="translate(33.362 45.333)" fill="#77a4e5"/>
          <rect id="Rectangle_155" data-name="Rectangle 155" width="0.462" height="4.518" transform="translate(30.323 45.333)" fill="#77a4e5"/>
          <rect id="Rectangle_156" data-name="Rectangle 156" width="0.462" height="4.518" transform="translate(25.664 45.333)" fill="#77a4e5"/>
          <rect id="Rectangle_157" data-name="Rectangle 157" width="0.462" height="4.518" transform="translate(41.163 45.333)" fill="#77a4e5"/>
          <rect id="Rectangle_158" data-name="Rectangle 158" width="0.462" height="4.518" transform="translate(42.147 45.333)" fill="#77a4e5"/>
          <rect id="Rectangle_159" data-name="Rectangle 159" width="0.462" height="4.518" transform="translate(43.096 45.333)" fill="#77a4e5"/>
          <path id="Path_247" data-name="Path 247" d="M3700.57,1951.18v4.518h.289a.977.977,0,0,0,.173-.016V1951.2a.955.955,0,0,0-.173-.016Z" transform="translate(-3656.76 -1905.848)" fill="#77a4e5"/>
          <path id="Path_248" data-name="Path 248" d="M3703.706,1951.5v4.385a.992.992,0,0,0,.461-.368v-3.649A.987.987,0,0,0,3703.706,1951.5Z" transform="translate(-3659.254 -1906.105)" fill="#77a4e5"/>
          <path id="Path_249" data-name="Path 249" d="M3541.245,1929.986v2.552a.97.97,0,0,1-.168.549.987.987,0,0,1-.462.368.919.919,0,0,1-.179.051.975.975,0,0,1-.174.016H3499.62a.987.987,0,0,1-.982-.933c0-.017,0-.034,0-.05v-2.552c0-.017,0-.034,0-.051a.987.987,0,0,1,.982-.932h40.642a.964.964,0,0,1,.174.016.9.9,0,0,1,.179.051.985.985,0,0,1,.462.368A.97.97,0,0,1,3541.245,1929.986Z" transform="translate(-3496.163 -1888.21)" fill="#afcdfb"/>
          <path id="Path_250" data-name="Path 250" d="M3518.614,1929h-19.1a.932.932,0,0,0-.877.932c0,.017,0,.034,0,.051v2.552c0,.017,0,.034,0,.05a.932.932,0,0,0,.877.933h21.773A8.1,8.1,0,0,1,3518.614,1929Z" transform="translate(-3496.163 -1888.21)" fill="#77a4e5"/>
          <rect id="Rectangle_160" data-name="Rectangle 160" width="0.462" height="4.518" transform="translate(39.675 40.793)" fill="#77a4e5"/>
          <rect id="Rectangle_161" data-name="Rectangle 161" width="0.462" height="4.518" transform="translate(38.111 40.793)" fill="#77a4e5"/>
          <rect id="Rectangle_162" data-name="Rectangle 162" width="0.462" height="4.518" transform="translate(36.236 40.793)" fill="#77a4e5"/>
          <rect id="Rectangle_163" data-name="Rectangle 163" width="0.462" height="4.518" transform="translate(33.362 40.793)" fill="#77a4e5"/>
          <rect id="Rectangle_164" data-name="Rectangle 164" width="0.462" height="4.518" transform="translate(30.323 40.793)" fill="#77a4e5"/>
          <rect id="Rectangle_165" data-name="Rectangle 165" width="0.462" height="4.518" transform="translate(25.664 40.793)" fill="#77a4e5"/>
          <rect id="Rectangle_166" data-name="Rectangle 166" width="0.462" height="4.518" transform="translate(41.163 40.793)" fill="#77a4e5"/>
          <rect id="Rectangle_167" data-name="Rectangle 167" width="0.462" height="4.518" transform="translate(42.147 40.793)" fill="#77a4e5"/>
          <rect id="Rectangle_168" data-name="Rectangle 168" width="0.462" height="4.518" transform="translate(43.096 40.793)" fill="#77a4e5"/>
          <path id="Path_251" data-name="Path 251" d="M3700.57,1929v4.518h.289a.966.966,0,0,0,.173-.016v-4.487a.955.955,0,0,0-.173-.016Z" transform="translate(-3656.76 -1888.21)" fill="#77a4e5"/>
          <path id="Path_252" data-name="Path 252" d="M3703.706,1929.327v4.386a.992.992,0,0,0,.461-.368v-3.65A.99.99,0,0,0,3703.706,1929.327Z" transform="translate(-3659.254 -1888.468)" fill="#77a4e5"/>
          <path id="Path_253" data-name="Path 253" d="M3529.159,1907.809v2.551a.972.972,0,0,1-.168.549.991.991,0,0,1-.461.368.986.986,0,0,1-.353.066h-40.642a.986.986,0,0,1-.982-.933c0-.017,0-.034,0-.051v-2.551c0-.017,0-.034,0-.05a.986.986,0,0,1,.982-.933h40.642a1,1,0,0,1,.353.066,1,1,0,0,1,.461.368A.974.974,0,0,1,3529.159,1907.809Z" transform="translate(-3486.551 -1870.573)" fill="#afcdfb"/>
          <path id="Path_254" data-name="Path 254" d="M3506.529,1906.826h-19.1a.932.932,0,0,0-.877.933c0,.017,0,.033,0,.05v2.551c0,.017,0,.034,0,.051a.932.932,0,0,0,.877.933H3509.2A8.092,8.092,0,0,1,3506.529,1906.826Z" transform="translate(-3486.551 -1870.573)" fill="#77a4e5"/>
          <rect id="Rectangle_169" data-name="Rectangle 169" width="0.462" height="4.518" transform="translate(37.201 36.253)" fill="#77a4e5"/>
          <rect id="Rectangle_170" data-name="Rectangle 170" width="0.462" height="4.518" transform="translate(35.638 36.253)" fill="#77a4e5"/>
          <rect id="Rectangle_171" data-name="Rectangle 171" width="0.462" height="4.518" transform="translate(33.763 36.253)" fill="#77a4e5"/>
          <rect id="Rectangle_172" data-name="Rectangle 172" width="0.462" height="4.518" transform="translate(30.889 36.253)" fill="#77a4e5"/>
          <rect id="Rectangle_173" data-name="Rectangle 173" width="0.462" height="4.518" transform="translate(27.85 36.253)" fill="#77a4e5"/>
          <rect id="Rectangle_174" data-name="Rectangle 174" width="0.462" height="4.518" transform="translate(23.191 36.253)" fill="#77a4e5"/>
          <rect id="Rectangle_175" data-name="Rectangle 175" width="0.462" height="4.518" transform="translate(38.69 36.253)" fill="#77a4e5"/>
          <rect id="Rectangle_176" data-name="Rectangle 176" width="0.462" height="4.518" transform="translate(39.673 36.253)" fill="#77a4e5"/>
          <rect id="Rectangle_177" data-name="Rectangle 177" width="0.462" height="4.518" transform="translate(40.622 36.253)" fill="#77a4e5"/>
          <path id="Path_255" data-name="Path 255" d="M3688.485,1906.826v4.518h.289a.937.937,0,0,0,.173-.016v-4.487a.937.937,0,0,0-.173-.016Z" transform="translate(-3647.148 -1870.573)" fill="#77a4e5"/>
          <path id="Path_256" data-name="Path 256" d="M3691.622,1907.149v4.386a.993.993,0,0,0,.462-.368v-3.65A1,1,0,0,0,3691.622,1907.149Z" transform="translate(-3649.643 -1870.829)" fill="#77a4e5"/>
          <path id="Path_257" data-name="Path 257" d="M3535.74,1885.631v2.552a.975.975,0,0,1-.168.549.989.989,0,0,1-.462.368.916.916,0,0,1-.18.051.969.969,0,0,1-.173.016h-40.642a.987.987,0,0,1-.982-.933c0-.017,0-.034,0-.051v-2.552c0-.017,0-.034,0-.05a.987.987,0,0,1,.982-.933h40.642a.981.981,0,0,1,.173.016.934.934,0,0,1,.18.051.991.991,0,0,1,.462.368A.975.975,0,0,1,3535.74,1885.631Z" transform="translate(-3491.785 -1852.935)" fill="#afcdfb"/>
          <path id="Path_258" data-name="Path 258" d="M3513.109,1884.648h-19.1a.932.932,0,0,0-.877.933c0,.017,0,.034,0,.05v2.552c0,.017,0,.034,0,.051a.932.932,0,0,0,.877.933h21.773A8.1,8.1,0,0,1,3513.109,1884.648Z" transform="translate(-3491.785 -1852.935)" fill="#77a4e5"/>
          <rect id="Rectangle_178" data-name="Rectangle 178" width="0.462" height="4.518" transform="translate(38.548 31.713)" fill="#77a4e5"/>
          <rect id="Rectangle_179" data-name="Rectangle 179" width="0.462" height="4.518" transform="translate(36.985 31.713)" fill="#77a4e5"/>
          <rect id="Rectangle_180" data-name="Rectangle 180" width="0.462" height="4.518" transform="translate(35.11 31.713)" fill="#77a4e5"/>
          <rect id="Rectangle_181" data-name="Rectangle 181" width="0.462" height="4.518" transform="translate(32.236 31.713)" fill="#77a4e5"/>
          <rect id="Rectangle_182" data-name="Rectangle 182" width="0.462" height="4.518" transform="translate(29.196 31.713)" fill="#77a4e5"/>
          <rect id="Rectangle_183" data-name="Rectangle 183" width="0.462" height="4.518" transform="translate(24.537 31.713)" fill="#77a4e5"/>
          <rect id="Rectangle_184" data-name="Rectangle 184" width="0.462" height="4.518" transform="translate(40.037 31.713)" fill="#77a4e5"/>
          <rect id="Rectangle_185" data-name="Rectangle 185" width="0.462" height="4.518" transform="translate(41.02 31.713)" fill="#77a4e5"/>
          <rect id="Rectangle_186" data-name="Rectangle 186" width="0.462" height="4.518" transform="translate(41.969 31.713)" fill="#77a4e5"/>
          <path id="Path_259" data-name="Path 259" d="M3695.066,1884.648v4.518h.289a.965.965,0,0,0,.173-.016v-4.487a.976.976,0,0,0-.173-.016Z" transform="translate(-3652.382 -1852.935)" fill="#77a4e5"/>
          <path id="Path_260" data-name="Path 260" d="M3698.2,1884.973v4.385a.986.986,0,0,0,.461-.368v-3.65A.986.986,0,0,0,3698.2,1884.973Z" transform="translate(-3654.876 -1853.193)" fill="#77a4e5"/>
          <path id="Path_261" data-name="Path 261" d="M3550.289,1863.56v2.552a.975.975,0,0,1-.168.549.99.99,0,0,1-.461.368.934.934,0,0,1-.18.05.953.953,0,0,1-.173.016h-40.642a.987.987,0,0,1-.982-.933c0-.017,0-.034,0-.05v-2.552c0-.017,0-.034,0-.05a.987.987,0,0,1,.982-.933h40.642a.989.989,0,0,1,.354.067.992.992,0,0,1,.461.368A.976.976,0,0,1,3550.289,1863.56Z" transform="translate(-3503.355 -1835.382)" fill="#afcdfb"/>
          <path id="Path_262" data-name="Path 262" d="M3527.658,1862.577h-19.1a.932.932,0,0,0-.877.933c0,.017,0,.034,0,.05v2.552c0,.017,0,.033,0,.05a.932.932,0,0,0,.877.933h21.773A8.1,8.1,0,0,1,3527.658,1862.577Z" transform="translate(-3503.355 -1835.382)" fill="#77a4e5"/>
          <rect id="Rectangle_187" data-name="Rectangle 187" width="0.462" height="4.518" transform="translate(41.526 27.195)" fill="#77a4e5"/>
          <rect id="Rectangle_188" data-name="Rectangle 188" width="0.462" height="4.518" transform="translate(39.963 27.195)" fill="#77a4e5"/>
          <rect id="Rectangle_189" data-name="Rectangle 189" width="0.462" height="4.518" transform="translate(38.088 27.195)" fill="#77a4e5"/>
          <rect id="Rectangle_190" data-name="Rectangle 190" width="0.462" height="4.518" transform="translate(35.214 27.195)" fill="#77a4e5"/>
          <rect id="Rectangle_191" data-name="Rectangle 191" width="0.462" height="4.518" transform="translate(32.175 27.195)" fill="#77a4e5"/>
          <rect id="Rectangle_192" data-name="Rectangle 192" width="0.462" height="4.518" transform="translate(27.516 27.195)" fill="#77a4e5"/>
          <rect id="Rectangle_193" data-name="Rectangle 193" width="0.462" height="4.518" transform="translate(43.015 27.195)" fill="#77a4e5"/>
          <rect id="Rectangle_194" data-name="Rectangle 194" width="0.462" height="4.518" transform="translate(43.998 27.195)" fill="#77a4e5"/>
          <rect id="Rectangle_195" data-name="Rectangle 195" width="0.462" height="4.518" transform="translate(44.948 27.195)" fill="#77a4e5"/>
          <path id="Path_263" data-name="Path 263" d="M3709.615,1862.577v4.518h.289a.951.951,0,0,0,.173-.016v-4.487a.951.951,0,0,0-.173-.016Z" transform="translate(-3663.953 -1835.382)" fill="#77a4e5"/>
          <path id="Path_264" data-name="Path 264" d="M3712.752,1862.9v4.385a.989.989,0,0,0,.461-.368v-3.65A.992.992,0,0,0,3712.752,1862.9Z" transform="translate(-3666.448 -1835.64)" fill="#77a4e5"/>
          <path id="Path_265" data-name="Path 265" d="M3541.245,1841.488v2.552a.971.971,0,0,1-.168.549.987.987,0,0,1-.462.368.91.91,0,0,1-.179.05.964.964,0,0,1-.174.016H3499.62a.987.987,0,0,1-.982-.933c0-.017,0-.033,0-.05v-2.552c0-.017,0-.034,0-.051a.987.987,0,0,1,.982-.932h40.642a.953.953,0,0,1,.174.016.886.886,0,0,1,.179.05.986.986,0,0,1,.462.368A.971.971,0,0,1,3541.245,1841.488Z" transform="translate(-3496.163 -1817.828)" fill="#afcdfb"/>
          <path id="Path_266" data-name="Path 266" d="M3518.614,1840.5h-19.1a.932.932,0,0,0-.877.932c0,.017,0,.034,0,.051v2.551c0,.017,0,.034,0,.051a.932.932,0,0,0,.877.933h21.773A8.094,8.094,0,0,1,3518.614,1840.5Z" transform="translate(-3496.163 -1817.828)" fill="#77a4e5"/>
          <rect id="Rectangle_196" data-name="Rectangle 196" width="0.462" height="4.518" transform="translate(39.675 22.677)" fill="#77a4e5"/>
          <rect id="Rectangle_197" data-name="Rectangle 197" width="0.462" height="4.518" transform="translate(38.111 22.677)" fill="#77a4e5"/>
          <rect id="Rectangle_198" data-name="Rectangle 198" width="0.462" height="4.518" transform="translate(36.236 22.677)" fill="#77a4e5"/>
          <rect id="Rectangle_199" data-name="Rectangle 199" width="0.462" height="4.518" transform="translate(33.362 22.677)" fill="#77a4e5"/>
          <rect id="Rectangle_200" data-name="Rectangle 200" width="0.462" height="4.518" transform="translate(30.323 22.677)" fill="#77a4e5"/>
          <rect id="Rectangle_201" data-name="Rectangle 201" width="0.462" height="4.518" transform="translate(25.664 22.677)" fill="#77a4e5"/>
          <rect id="Rectangle_202" data-name="Rectangle 202" width="0.462" height="4.518" transform="translate(41.163 22.677)" fill="#77a4e5"/>
          <rect id="Rectangle_203" data-name="Rectangle 203" width="0.462" height="4.518" transform="translate(42.147 22.677)" fill="#77a4e5"/>
          <rect id="Rectangle_204" data-name="Rectangle 204" width="0.462" height="4.518" transform="translate(43.096 22.677)" fill="#77a4e5"/>
          <path id="Path_267" data-name="Path 267" d="M3700.57,1840.5v4.518h.289a.955.955,0,0,0,.173-.016v-4.486a.944.944,0,0,0-.173-.016Z" transform="translate(-3656.76 -1817.828)" fill="#77a4e5"/>
          <path id="Path_268" data-name="Path 268" d="M3703.706,1840.829v4.385a.99.99,0,0,0,.461-.368v-3.65A.987.987,0,0,0,3703.706,1840.829Z" transform="translate(-3659.254 -1818.086)" fill="#77a4e5"/>
          <path id="Path_269" data-name="Path 269" d="M3551.587,1819.311v2.551a.974.974,0,0,1-.168.549.988.988,0,0,1-.461.368.919.919,0,0,1-.18.051.966.966,0,0,1-.173.016h-40.641a.987.987,0,0,1-.983-.933c0-.017,0-.034,0-.051v-2.551c0-.017,0-.034,0-.051a.987.987,0,0,1,.983-.933H3550.6a.977.977,0,0,1,.173.016.919.919,0,0,1,.18.051.991.991,0,0,1,.461.368A.975.975,0,0,1,3551.587,1819.311Z" transform="translate(-3504.388 -1800.191)" fill="#afcdfb"/>
          <path id="Path_270" data-name="Path 270" d="M3528.956,1818.328h-19.1a.933.933,0,0,0-.877.933c0,.017,0,.034,0,.051v2.551c0,.017,0,.034,0,.051a.933.933,0,0,0,.877.933h21.773A8.1,8.1,0,0,1,3528.956,1818.328Z" transform="translate(-3504.388 -1800.191)" fill="#77a4e5"/>
          <rect id="Rectangle_205" data-name="Rectangle 205" width="0.462" height="4.518" transform="translate(41.792 18.137)" fill="#77a4e5"/>
          <rect id="Rectangle_206" data-name="Rectangle 206" width="0.462" height="4.518" transform="translate(40.228 18.137)" fill="#77a4e5"/>
          <rect id="Rectangle_207" data-name="Rectangle 207" width="0.462" height="4.518" transform="translate(38.353 18.137)" fill="#77a4e5"/>
          <rect id="Rectangle_208" data-name="Rectangle 208" width="0.462" height="4.518" transform="translate(35.479 18.137)" fill="#77a4e5"/>
          <rect id="Rectangle_209" data-name="Rectangle 209" width="0.462" height="4.518" transform="translate(32.44 18.137)" fill="#77a4e5"/>
          <rect id="Rectangle_210" data-name="Rectangle 210" width="0.462" height="4.518" transform="translate(27.781 18.137)" fill="#77a4e5"/>
          <rect id="Rectangle_211" data-name="Rectangle 211" width="0.462" height="4.518" transform="translate(43.28 18.137)" fill="#77a4e5"/>
          <rect id="Rectangle_212" data-name="Rectangle 212" width="0.462" height="4.518" transform="translate(44.264 18.137)" fill="#77a4e5"/>
          <rect id="Rectangle_213" data-name="Rectangle 213" width="0.462" height="4.518" transform="translate(45.213 18.137)" fill="#77a4e5"/>
          <path id="Path_271" data-name="Path 271" d="M3710.912,1818.328v4.518h.289a.968.968,0,0,0,.174-.016v-4.487a.98.98,0,0,0-.174-.016Z" transform="translate(-3664.984 -1800.191)" fill="#77a4e5"/>
          <path id="Path_272" data-name="Path 272" d="M3714.048,1818.652v4.385a.988.988,0,0,0,.462-.368v-3.649A.989.989,0,0,0,3714.048,1818.652Z" transform="translate(-3667.478 -1800.448)" fill="#77a4e5"/>
          <path id="Path_273" data-name="Path 273" d="M3541.245,1797.239v2.551a.971.971,0,0,1-.168.549.985.985,0,0,1-.462.368.92.92,0,0,1-.179.051.975.975,0,0,1-.174.016H3499.62a.987.987,0,0,1-.982-.933c0-.017,0-.034,0-.05v-2.551c0-.017,0-.034,0-.051a.988.988,0,0,1,.982-.933h40.642a.975.975,0,0,1,.174.016.928.928,0,0,1,.179.051.985.985,0,0,1,.462.368A.97.97,0,0,1,3541.245,1797.239Z" transform="translate(-3496.163 -1782.637)" fill="#afcdfb"/>
          <path id="Path_274" data-name="Path 274" d="M3518.614,1796.256h-19.1a.932.932,0,0,0-.877.933c0,.017,0,.034,0,.051v2.551c0,.017,0,.034,0,.05a.932.932,0,0,0,.877.933h21.773A8.094,8.094,0,0,1,3518.614,1796.256Z" transform="translate(-3496.163 -1782.637)" fill="#77a4e5"/>
          <rect id="Rectangle_214" data-name="Rectangle 214" width="0.462" height="4.518" transform="translate(39.675 13.619)" fill="#77a4e5"/>
          <rect id="Rectangle_215" data-name="Rectangle 215" width="0.462" height="4.518" transform="translate(38.111 13.619)" fill="#77a4e5"/>
          <rect id="Rectangle_216" data-name="Rectangle 216" width="0.462" height="4.518" transform="translate(36.236 13.619)" fill="#77a4e5"/>
          <rect id="Rectangle_217" data-name="Rectangle 217" width="0.462" height="4.518" transform="translate(33.362 13.619)" fill="#77a4e5"/>
          <rect id="Rectangle_218" data-name="Rectangle 218" width="0.462" height="4.518" transform="translate(30.323 13.619)" fill="#77a4e5"/>
          <rect id="Rectangle_219" data-name="Rectangle 219" width="0.462" height="4.518" transform="translate(25.664 13.619)" fill="#77a4e5"/>
          <rect id="Rectangle_220" data-name="Rectangle 220" width="0.462" height="4.518" transform="translate(41.163 13.619)" fill="#77a4e5"/>
          <rect id="Rectangle_221" data-name="Rectangle 221" width="0.462" height="4.518" transform="translate(42.147 13.619)" fill="#77a4e5"/>
          <rect id="Rectangle_222" data-name="Rectangle 222" width="0.462" height="4.518" transform="translate(43.096 13.619)" fill="#77a4e5"/>
          <path id="Path_275" data-name="Path 275" d="M3700.57,1796.256v4.518h.289a.966.966,0,0,0,.173-.016v-4.487a.966.966,0,0,0-.173-.016Z" transform="translate(-3656.76 -1782.637)" fill="#77a4e5"/>
          <path id="Path_276" data-name="Path 276" d="M3703.706,1796.58v4.386a.991.991,0,0,0,.461-.368v-3.649A.988.988,0,0,0,3703.706,1796.58Z" transform="translate(-3659.254 -1782.894)" fill="#77a4e5"/>
          <path id="Path_277" data-name="Path 277" d="M3541.245,1775.062v2.552a.969.969,0,0,1-.168.549.987.987,0,0,1-.462.368.911.911,0,0,1-.179.051.964.964,0,0,1-.174.016H3499.62a.987.987,0,0,1-.982-.933c0-.017,0-.033,0-.05v-2.552c0-.017,0-.034,0-.051a.988.988,0,0,1,.982-.933h40.642a.975.975,0,0,1,.174.016.9.9,0,0,1,.179.051.987.987,0,0,1,.462.368A.972.972,0,0,1,3541.245,1775.062Z" transform="translate(-3496.163 -1764.999)" fill="#afcdfb"/>
          <path id="Path_278" data-name="Path 278" d="M3518.614,1774.079h-19.1a.932.932,0,0,0-.877.933c0,.017,0,.034,0,.051v2.552c0,.017,0,.034,0,.05a.932.932,0,0,0,.877.933h21.773A8.094,8.094,0,0,1,3518.614,1774.079Z" transform="translate(-3496.163 -1764.999)" fill="#77a4e5"/>
          <rect id="Rectangle_223" data-name="Rectangle 223" width="0.462" height="4.518" transform="translate(39.675 9.08)" fill="#77a4e5"/>
          <rect id="Rectangle_224" data-name="Rectangle 224" width="0.462" height="4.518" transform="translate(38.111 9.08)" fill="#77a4e5"/>
          <rect id="Rectangle_225" data-name="Rectangle 225" width="0.462" height="4.518" transform="translate(36.236 9.08)" fill="#77a4e5"/>
          <rect id="Rectangle_226" data-name="Rectangle 226" width="0.462" height="4.518" transform="translate(33.362 9.08)" fill="#77a4e5"/>
          <rect id="Rectangle_227" data-name="Rectangle 227" width="0.462" height="4.518" transform="translate(30.323 9.08)" fill="#77a4e5"/>
          <rect id="Rectangle_228" data-name="Rectangle 228" width="0.462" height="4.518" transform="translate(25.664 9.08)" fill="#77a4e5"/>
          <rect id="Rectangle_229" data-name="Rectangle 229" width="0.462" height="4.518" transform="translate(41.163 9.08)" fill="#77a4e5"/>
          <rect id="Rectangle_230" data-name="Rectangle 230" width="0.462" height="4.518" transform="translate(42.147 9.08)" fill="#77a4e5"/>
          <rect id="Rectangle_231" data-name="Rectangle 231" width="0.462" height="4.518" transform="translate(43.096 9.08)" fill="#77a4e5"/>
          <path id="Path_279" data-name="Path 279" d="M3700.57,1774.079v4.518h.289a.955.955,0,0,0,.173-.016v-4.487a.966.966,0,0,0-.173-.016Z" transform="translate(-3656.76 -1764.999)" fill="#77a4e5"/>
          <path id="Path_280" data-name="Path 280" d="M3703.706,1774.4v4.385a.989.989,0,0,0,.461-.368v-3.65A.99.99,0,0,0,3703.706,1774.4Z" transform="translate(-3659.254 -1765.257)" fill="#77a4e5"/>
          <path id="Path_281" data-name="Path 281" d="M3529.159,1752.885v2.552a.973.973,0,0,1-.168.549.991.991,0,0,1-.461.368.894.894,0,0,1-.18.051.957.957,0,0,1-.173.016h-40.642a.987.987,0,0,1-.982-.933c0-.017,0-.034,0-.051v-2.552c0-.017,0-.034,0-.05a.987.987,0,0,1,.982-.933h40.642a.968.968,0,0,1,.173.016.927.927,0,0,1,.18.05,1,1,0,0,1,.461.368A.974.974,0,0,1,3529.159,1752.885Z" transform="translate(-3486.551 -1747.362)" fill="#afcdfb"/>
          <path id="Path_282" data-name="Path 282" d="M3506.529,1751.9h-19.1a.932.932,0,0,0-.877.933c0,.017,0,.034,0,.05v2.552c0,.017,0,.034,0,.051a.932.932,0,0,0,.877.933H3509.2A8.093,8.093,0,0,1,3506.529,1751.9Z" transform="translate(-3486.551 -1747.362)" fill="#77a4e5"/>
          <rect id="Rectangle_232" data-name="Rectangle 232" width="0.462" height="4.518" transform="translate(37.201 4.54)" fill="#77a4e5"/>
          <rect id="Rectangle_233" data-name="Rectangle 233" width="0.462" height="4.518" transform="translate(35.638 4.54)" fill="#77a4e5"/>
          <rect id="Rectangle_234" data-name="Rectangle 234" width="0.462" height="4.518" transform="translate(33.763 4.54)" fill="#77a4e5"/>
          <rect id="Rectangle_235" data-name="Rectangle 235" width="0.462" height="4.518" transform="translate(30.889 4.54)" fill="#77a4e5"/>
          <rect id="Rectangle_236" data-name="Rectangle 236" width="0.462" height="4.518" transform="translate(27.85 4.54)" fill="#77a4e5"/>
          <rect id="Rectangle_237" data-name="Rectangle 237" width="0.462" height="4.518" transform="translate(23.191 4.54)" fill="#77a4e5"/>
          <rect id="Rectangle_238" data-name="Rectangle 238" width="0.462" height="4.518" transform="translate(38.69 4.54)" fill="#77a4e5"/>
          <rect id="Rectangle_239" data-name="Rectangle 239" width="0.462" height="4.518" transform="translate(39.673 4.54)" fill="#77a4e5"/>
          <rect id="Rectangle_240" data-name="Rectangle 240" width="0.462" height="4.518" transform="translate(40.622 4.54)" fill="#77a4e5"/>
          <path id="Path_283" data-name="Path 283" d="M3688.485,1751.9v4.518h.289a.959.959,0,0,0,.173-.016v-4.486a.97.97,0,0,0-.173-.016Z" transform="translate(-3647.148 -1747.362)" fill="#77a4e5"/>
          <path id="Path_284" data-name="Path 284" d="M3691.622,1752.225v4.386a.993.993,0,0,0,.462-.368v-3.65A1,1,0,0,0,3691.622,1752.225Z" transform="translate(-3649.643 -1747.619)" fill="#77a4e5"/>
          <path id="Path_285" data-name="Path 285" d="M3535.74,1730.708v2.552a.976.976,0,0,1-.168.549.992.992,0,0,1-.462.368.934.934,0,0,1-.18.051.992.992,0,0,1-.173.016h-40.642a.987.987,0,0,1-.982-.933c0-.017,0-.034,0-.05v-2.552c0-.017,0-.033,0-.05a.987.987,0,0,1,.982-.933h40.642a.947.947,0,0,1,.173.016.9.9,0,0,1,.18.051.988.988,0,0,1,.462.368A.972.972,0,0,1,3535.74,1730.708Z" transform="translate(-3491.785 -1729.725)" fill="#afcdfb"/>
          <path id="Path_286" data-name="Path 286" d="M3513.109,1729.725h-19.1a.932.932,0,0,0-.877.933c0,.017,0,.033,0,.05v2.552c0,.017,0,.033,0,.05a.932.932,0,0,0,.877.933h21.773A8.1,8.1,0,0,1,3513.109,1729.725Z" transform="translate(-3491.785 -1729.725)" fill="#77a4e5"/>
          <rect id="Rectangle_241" data-name="Rectangle 241" width="0.462" height="4.518" transform="translate(38.548 0)" fill="#77a4e5"/>
          <rect id="Rectangle_242" data-name="Rectangle 242" width="0.462" height="4.518" transform="translate(36.985 0)" fill="#77a4e5"/>
          <rect id="Rectangle_243" data-name="Rectangle 243" width="0.462" height="4.518" transform="translate(35.11 0)" fill="#77a4e5"/>
          <rect id="Rectangle_244" data-name="Rectangle 244" width="0.462" height="4.518" transform="translate(32.236 0)" fill="#77a4e5"/>
          <rect id="Rectangle_245" data-name="Rectangle 245" width="0.462" height="4.518" transform="translate(29.196 0)" fill="#77a4e5"/>
          <rect id="Rectangle_246" data-name="Rectangle 246" width="0.462" height="4.518" transform="translate(24.537 0)" fill="#77a4e5"/>
          <rect id="Rectangle_247" data-name="Rectangle 247" width="0.462" height="4.518" transform="translate(40.037 0)" fill="#77a4e5"/>
          <rect id="Rectangle_248" data-name="Rectangle 248" width="0.462" height="4.518" transform="translate(41.02 0)" fill="#77a4e5"/>
          <rect id="Rectangle_249" data-name="Rectangle 249" width="0.462" height="4.518" transform="translate(41.969 0)" fill="#77a4e5"/>
          <path id="Path_287" data-name="Path 287" d="M3695.066,1729.725v4.518h.289a.988.988,0,0,0,.173-.016v-4.487a.943.943,0,0,0-.173-.016Z" transform="translate(-3652.382 -1729.725)" fill="#77a4e5"/>
          <path id="Path_288" data-name="Path 288" d="M3698.2,1730.049v4.385a.989.989,0,0,0,.461-.368v-3.65A.985.985,0,0,0,3698.2,1730.049Z" transform="translate(-3654.876 -1729.983)" fill="#77a4e5"/>
        </g>
        <g id="Group_52" data-name="Group 52" transform="translate(217.374 102.213)" opacity="0.5">
          <path id="Path_289" data-name="Path 289" d="M2840.77,1177.108l13.895,53.155a4.422,4.422,0,0,1-3.15,5.38l-93.248,24.375a4.421,4.421,0,0,1-5.38-3.15l-13.9-53.155a4.422,4.422,0,0,1,3.15-5.38l93.248-24.375A4.422,4.422,0,0,1,2840.77,1177.108Z" transform="translate(-2738.849 -1173.815)" fill="#aac9f5"/>
          <g id="Group_51" data-name="Group 51" transform="translate(7.357 8.368)">
            <path id="Path_290" data-name="Path 290" d="M2855.393,1484.616l-24.852,6.5a1.982,1.982,0,0,1-2.411-1.412l-.062-.239a1.982,1.982,0,0,1,1.412-2.412l24.853-6.5a1.981,1.981,0,0,1,2.411,1.412l.063.239A1.982,1.982,0,0,1,2855.393,1484.616Z" transform="translate(-2817.109 -1426.08)" fill="#cde0fb"/>
            <path id="Path_291" data-name="Path 291" d="M3015.383,1442.794l-24.852,6.5a1.982,1.982,0,0,1-2.412-1.412l-.062-.239a1.981,1.981,0,0,1,1.412-2.411l24.852-6.5a1.982,1.982,0,0,1,2.412,1.412l.062.239A1.982,1.982,0,0,1,3015.383,1442.794Z" transform="translate(-2944.349 -1392.819)" fill="#cde0fb"/>
            <g id="Group_43" data-name="Group 43" transform="translate(38.054 14.588)">
              <path id="Path_292" data-name="Path 292" d="M2965.529,1354.115a4.781,4.781,0,0,1,.109,2.351,2.165,2.165,0,0,1-3.683.963,5.689,5.689,0,0,1-1.171-4.443,2.181,2.181,0,0,1,3.7-.967A4.8,4.8,0,0,1,2965.529,1354.115Zm-1.141.293a4.756,4.756,0,0,0-.567-1.381q-.526-.792-1.2-.615-.693.181-.757,1.117a4.581,4.581,0,0,0,.175,1.493q.606,2.32,1.79,2.01.684-.179.744-1.133A4.73,4.73,0,0,0,2964.388,1354.409Z" transform="translate(-2960.688 -1337.941)" fill="#cde0fb"/>
              <path id="Path_293" data-name="Path 293" d="M2990.458,1347.6a4.782,4.782,0,0,1,.109,2.351,2.165,2.165,0,0,1-3.683.963,5.685,5.685,0,0,1-1.171-4.443,2.18,2.18,0,0,1,3.7-.967A4.8,4.8,0,0,1,2990.458,1347.6Zm-1.141.294a4.746,4.746,0,0,0-.567-1.381q-.526-.792-1.2-.615-.693.181-.757,1.118a4.575,4.575,0,0,0,.175,1.493q.606,2.319,1.79,2.01.684-.179.744-1.133A4.729,4.729,0,0,0,2989.317,1347.893Z" transform="translate(-2980.514 -1332.759)" fill="#cde0fb"/>
              <path id="Path_294" data-name="Path 294" d="M3028.236,1337.723a4.783,4.783,0,0,1,.109,2.351,2.165,2.165,0,0,1-3.683.963,5.689,5.689,0,0,1-1.171-4.443,2.18,2.18,0,0,1,3.7-.967A4.8,4.8,0,0,1,3028.236,1337.723Zm-1.141.294a4.741,4.741,0,0,0-.568-1.382q-.526-.792-1.2-.615-.693.181-.757,1.117a4.6,4.6,0,0,0,.175,1.494q.606,2.319,1.79,2.01.684-.179.743-1.133A4.723,4.723,0,0,0,3027.095,1338.017Z" transform="translate(-3010.558 -1324.905)" fill="#cde0fb"/>
              <path id="Path_295" data-name="Path 295" d="M3053.164,1331.207a4.78,4.78,0,0,1,.109,2.351,2.165,2.165,0,0,1-3.683.963,5.681,5.681,0,0,1-1.171-4.443,2.18,2.18,0,0,1,3.7-.967A4.805,4.805,0,0,1,3053.164,1331.207Zm-1.141.294a4.74,4.74,0,0,0-.567-1.382q-.525-.792-1.2-.615-.693.181-.757,1.118a4.563,4.563,0,0,0,.175,1.493q.606,2.32,1.79,2.01.684-.179.744-1.133A4.721,4.721,0,0,0,3052.023,1331.5Z" transform="translate(-3030.383 -1319.723)" fill="#cde0fb"/>
              <path id="Path_296" data-name="Path 296" d="M3078.093,1324.691a4.779,4.779,0,0,1,.108,2.351,2.165,2.165,0,0,1-3.683.963,5.687,5.687,0,0,1-1.171-4.443,2.181,2.181,0,0,1,3.7-.967A4.807,4.807,0,0,1,3078.093,1324.691Zm-1.141.293a4.753,4.753,0,0,0-.567-1.381q-.526-.792-1.2-.615-.693.181-.757,1.117a4.574,4.574,0,0,0,.175,1.493q.606,2.319,1.79,2.01.684-.179.743-1.133A4.735,4.735,0,0,0,3076.951,1324.985Z" transform="translate(-3050.209 -1314.54)" fill="#cde0fb"/>
              <path id="Path_297" data-name="Path 297" d="M3103.021,1318.175a4.78,4.78,0,0,1,.108,2.351,2.165,2.165,0,0,1-3.682.963,5.689,5.689,0,0,1-1.171-4.443,2.18,2.18,0,0,1,3.7-.967A4.8,4.8,0,0,1,3103.021,1318.175Zm-1.141.294a4.743,4.743,0,0,0-.567-1.381q-.526-.792-1.2-.615-.693.181-.757,1.117a4.582,4.582,0,0,0,.175,1.494q.607,2.319,1.79,2.01.684-.179.743-1.133A4.713,4.713,0,0,0,3101.88,1318.468Z" transform="translate(-3070.035 -1309.358)" fill="#cde0fb"/>
              <path id="Path_298" data-name="Path 298" d="M3140.8,1308.3a4.786,4.786,0,0,1,.109,2.351,2.165,2.165,0,0,1-3.683.962,5.688,5.688,0,0,1-1.17-4.443,2.18,2.18,0,0,1,3.7-.967A4.8,4.8,0,0,1,3140.8,1308.3Zm-1.141.294a4.752,4.752,0,0,0-.567-1.381q-.526-.792-1.2-.615-.693.181-.757,1.118a4.576,4.576,0,0,0,.175,1.493q.606,2.319,1.79,2.01.683-.179.744-1.133A4.721,4.721,0,0,0,3139.658,1308.594Z" transform="translate(-3100.079 -1301.504)" fill="#cde0fb"/>
              <path id="Path_299" data-name="Path 299" d="M3165.727,1301.783a4.779,4.779,0,0,1,.108,2.351,2.165,2.165,0,0,1-3.682.962,5.683,5.683,0,0,1-1.171-4.443,2.181,2.181,0,0,1,3.7-.967A4.8,4.8,0,0,1,3165.727,1301.783Zm-1.141.294a4.729,4.729,0,0,0-.567-1.381q-.525-.792-1.2-.615-.693.181-.757,1.118a4.6,4.6,0,0,0,.175,1.493q.607,2.32,1.791,2.01.683-.179.743-1.133A4.719,4.719,0,0,0,3164.585,1302.077Z" transform="translate(-3119.904 -1296.322)" fill="#cde0fb"/>
              <path id="Path_300" data-name="Path 300" d="M3190.655,1295.267a4.776,4.776,0,0,1,.108,2.351,2.165,2.165,0,0,1-3.682.963,5.685,5.685,0,0,1-1.171-4.443,2.18,2.18,0,0,1,3.7-.967A4.8,4.8,0,0,1,3190.655,1295.267Zm-1.141.294a4.741,4.741,0,0,0-.567-1.382q-.526-.792-1.2-.615-.693.181-.757,1.118a4.583,4.583,0,0,0,.175,1.493q.606,2.319,1.79,2.01.684-.179.743-1.133A4.717,4.717,0,0,0,3189.514,1295.561Z" transform="translate(-3139.73 -1291.139)" fill="#cde0fb"/>
              <path id="Path_301" data-name="Path 301" d="M3215.584,1288.751a4.779,4.779,0,0,1,.108,2.351,2.165,2.165,0,0,1-3.682.963,5.684,5.684,0,0,1-1.171-4.443,2.181,2.181,0,0,1,3.7-.967A4.807,4.807,0,0,1,3215.584,1288.751Zm-1.141.294a4.759,4.759,0,0,0-.567-1.381q-.525-.792-1.2-.616-.693.181-.757,1.118a4.578,4.578,0,0,0,.175,1.494q.606,2.319,1.79,2.01.684-.179.744-1.133A4.72,4.72,0,0,0,3214.443,1289.045Z" transform="translate(-3159.556 -1285.957)" fill="#cde0fb"/>
            </g>
            <path id="Path_302" data-name="Path 302" d="M2801.584,1281.482l-24.321,6.358a1.982,1.982,0,0,1-2.412-1.412h0a1.982,1.982,0,0,1,1.412-2.411l24.321-6.358a1.982,1.982,0,0,1,2.412,1.412h0A1.983,1.983,0,0,1,2801.584,1281.482Z" transform="translate(-2774.787 -1264.718)" fill="#cde0fb"/>
            <g id="Group_48" data-name="Group 48" transform="translate(83.908)">
              <g id="Group_44" data-name="Group 44" transform="translate(0 3.999)">
                <path id="Path_303" data-name="Path 303" d="M3186.416,1235.963a3.025,3.025,0,0,0-1.125-1.668.324.324,0,0,0-.474.1l-.084.146a.321.321,0,0,0,.083.416,2.221,2.221,0,0,1,.7,2.669.321.321,0,0,0,.131.4l.144.086a.324.324,0,0,0,.462-.146A3.025,3.025,0,0,0,3186.416,1235.963Z" transform="translate(-3184.69 -1234.231)" fill="#cde0fb"/>
              </g>
              <g id="Group_45" data-name="Group 45" transform="translate(0.849 2.581)">
                <path id="Path_304" data-name="Path 304" d="M3191.292,1230.041a4.639,4.639,0,0,0-1.906-2.685.322.322,0,0,0-.457.11l-.047.083a.324.324,0,0,0,.1.43,3.914,3.914,0,0,1,1.3,4.99.324.324,0,0,0,.122.425l.081.049a.323.323,0,0,0,.453-.127A4.643,4.643,0,0,0,3191.292,1230.041Z" transform="translate(-3188.84 -1227.302)" fill="#cde0fb"/>
              </g>
              <g id="Group_46" data-name="Group 46" transform="translate(1.608 1.341)">
                <path id="Path_305" data-name="Path 305" d="M3195.62,1224.859a6.072,6.072,0,0,0-2.577-3.567.323.323,0,0,0-.455.112h0a.322.322,0,0,0,.1.431,5.434,5.434,0,0,1,1.854,7.094.322.322,0,0,0,.12.426h0a.323.323,0,0,0,.451-.125A6.067,6.067,0,0,0,3195.62,1224.859Z" transform="translate(-3192.545 -1221.241)" fill="#cde0fb"/>
              </g>
              <g id="Group_47" data-name="Group 47" transform="translate(2.295)">
                <path id="Path_306" data-name="Path 306" d="M3199.786,1219.26a7.61,7.61,0,0,0-3.3-4.517.325.325,0,0,0-.455.113l-.082.143a.322.322,0,0,0,.106.432,6.819,6.819,0,0,1,2.352,9,.323.323,0,0,0,.119.429l.142.084a.325.325,0,0,0,.452-.125A7.61,7.61,0,0,0,3199.786,1219.26Z" transform="translate(-3195.902 -1214.693)" fill="#cde0fb"/>
              </g>
            </g>
            <g id="Group_50" data-name="Group 50" transform="translate(12.564 64.333)">
              <g id="Group_49" data-name="Group 49">
                <path id="Path_307" data-name="Path 307" d="M2838.5,1548.177a2.308,2.308,0,0,1,.052,1.134,1.044,1.044,0,0,1-1.776.464,2.744,2.744,0,0,1-.564-2.143,1.051,1.051,0,0,1,1.784-.467A2.316,2.316,0,0,1,2838.5,1548.177Zm-.55.142a2.292,2.292,0,0,0-.274-.666q-.253-.382-.579-.3t-.365.539a2.212,2.212,0,0,0,.084.72q.292,1.119.864.969.33-.086.358-.546A2.281,2.281,0,0,0,2837.951,1548.319Z" transform="translate(-2836.166 -1543.173)" fill="#cde0fb"/>
                <path id="Path_308" data-name="Path 308" d="M2850.524,1545.034a2.3,2.3,0,0,1,.053,1.134,1.044,1.044,0,0,1-1.776.464,2.741,2.741,0,0,1-.565-2.143,1.052,1.052,0,0,1,1.785-.466A2.318,2.318,0,0,1,2850.524,1545.034Zm-.55.142a2.287,2.287,0,0,0-.273-.666q-.253-.382-.579-.3t-.365.539a2.21,2.21,0,0,0,.084.72q.293,1.119.864.969.33-.086.358-.546A2.28,2.28,0,0,0,2849.974,1545.176Z" transform="translate(-2845.728 -1540.674)" fill="#cde0fb"/>
                <path id="Path_309" data-name="Path 309" d="M2862.688,1540.479a.35.35,0,0,1-.006.159l-.59,2.988q-.042.219-.194.259a.224.224,0,0,1-.175-.022.217.217,0,0,1-.107-.139.348.348,0,0,1,0-.162l.6-2.984c.029-.144.093-.228.191-.254a.246.246,0,0,1,.178.016A.206.206,0,0,1,2862.688,1540.479Z" transform="translate(-2856.398 -1537.991)" fill="#cde0fb"/>
                <path id="Path_310" data-name="Path 310" d="M2870.77,1539.743a2.319,2.319,0,0,1,.052,1.134,1.044,1.044,0,0,1-1.776.464,2.742,2.742,0,0,1-.565-2.143,1.052,1.052,0,0,1,1.785-.467A2.329,2.329,0,0,1,2870.77,1539.743Zm-.551.142a2.3,2.3,0,0,0-.273-.667c-.169-.255-.362-.353-.579-.3s-.344.238-.365.539a2.2,2.2,0,0,0,.084.72q.292,1.119.863.969.33-.086.358-.546A2.266,2.266,0,0,0,2870.219,1539.884Z" transform="translate(-2861.829 -1536.465)" fill="#cde0fb"/>
                <path id="Path_311" data-name="Path 311" d="M2882.793,1536.6a2.306,2.306,0,0,1,.052,1.134,1.044,1.044,0,0,1-1.776.464,2.744,2.744,0,0,1-.565-2.143,1.052,1.052,0,0,1,1.785-.466A2.318,2.318,0,0,1,2882.793,1536.6Zm-.55.142a2.3,2.3,0,0,0-.274-.666q-.254-.382-.579-.3t-.365.539a2.2,2.2,0,0,0,.084.72q.292,1.118.863.969.33-.086.358-.547A2.273,2.273,0,0,0,2882.243,1536.74Z" transform="translate(-2871.391 -1533.965)" fill="#cde0fb"/>
                <path id="Path_312" data-name="Path 312" d="M2894.816,1533.456a2.305,2.305,0,0,1,.052,1.134,1.044,1.044,0,0,1-1.776.464,2.744,2.744,0,0,1-.565-2.143,1.052,1.052,0,0,1,1.785-.466A2.322,2.322,0,0,1,2894.816,1533.456Zm-.55.142a2.285,2.285,0,0,0-.274-.667q-.253-.382-.579-.3t-.365.539a2.2,2.2,0,0,0,.084.72q.292,1.118.863.969.33-.086.359-.546A2.274,2.274,0,0,0,2894.266,1533.6Z" transform="translate(-2880.953 -1531.465)" fill="#cde0fb"/>
                <path id="Path_313" data-name="Path 313" d="M2906.839,1530.314a2.306,2.306,0,0,1,.052,1.134,1.044,1.044,0,0,1-1.776.464,2.741,2.741,0,0,1-.564-2.143,1.051,1.051,0,0,1,1.784-.467A2.319,2.319,0,0,1,2906.839,1530.314Zm-.551.142a2.268,2.268,0,0,0-.274-.667q-.253-.382-.579-.3t-.365.539a2.208,2.208,0,0,0,.084.72q.293,1.118.863.969.33-.086.358-.547A2.27,2.27,0,0,0,2906.289,1530.455Z" transform="translate(-2890.515 -1528.966)" fill="#cde0fb"/>
              </g>
            </g>
          </g>
        </g>
        <g id="Group_53" data-name="Group 53" transform="translate(326.74 82.718)">
          <path id="Path_314" data-name="Path 314" d="M3313.782,1101.072s11.409-24.394,18.081-22.372S3313.782,1101.072,3313.782,1101.072Z" transform="translate(-3305.457 -1078.581)" fill="#9fbbff"/>
          <path id="Path_315" data-name="Path 315" d="M3273.115,1149.194s27.888-28.365,39.019-23.492-6.533,10.646-13.281,12.254S3273.115,1149.194,3273.115,1149.194Z" transform="translate(-3273.115 -1115.608)" fill="#9fbbff"/>
          <path id="Path_316" data-name="Path 316" d="M3288.13,1127.258c-.528-2.6-1.424-6.78-2.113-8.872-1.042-3.164.589-6.339,4.559-4.256s-2,15.371-2,15.371S3288.4,1128.588,3288.13,1127.258Z" transform="translate(-3283.132 -1106.322)" fill="#9fbbff"/>
        </g>
        <g id="Group_80" data-name="Group 80" transform="translate(121.941 59.384)">
          <rect id="Rectangle_250" data-name="Rectangle 250" width="256.662" height="3.71" transform="translate(8.25 208.923)" fill="#c0d8fb"/>
          <rect id="Rectangle_251" data-name="Rectangle 251" width="261.923" height="3.709" transform="translate(5.62 212.633)" fill="#afcdfb"/>
          <rect id="Rectangle_252" data-name="Rectangle 252" width="269.146" height="3.71" transform="translate(2.008 216.342)" fill="#95c0f4"/>
          <rect id="Rectangle_253" data-name="Rectangle 253" width="240.036" height="141.81" transform="translate(14.236 67.113)" fill="#7ba2ff"/>
          <path id="Path_342" data-name="Path 342" d="M2543.213,1034.41H2272.645l137.745-69.818Z" transform="translate(-2272.645 -964.591)" fill="#fff"/>
          <path id="Path_343" data-name="Path 343" d="M2473.274,1073.036l188.43-.4-91.849-47.762Z" transform="translate(-2432.205 -1012.537)" fill="#7ba2ff"/>
          <rect id="Rectangle_254" data-name="Rectangle 254" width="257.763" height="4.657" transform="translate(7.061 69.818)" fill="#244fb5"/>
          <g id="Group_64" data-name="Group 64" transform="translate(26.202 69.818)">
            <rect id="Rectangle_255" data-name="Rectangle 255" width="25.39" height="8.988" fill="#fff"/>
            <rect id="Rectangle_256" data-name="Rectangle 256" width="13.996" height="130.117" transform="translate(5.697 8.988)" fill="#fff"/>
          </g>
          <rect id="Rectangle_257" data-name="Rectangle 257" width="25.39" height="8.988" transform="translate(81.064 69.818)" fill="#fff"/>
          <rect id="Rectangle_258" data-name="Rectangle 258" width="13.996" height="130.117" transform="translate(86.761 78.807)" fill="#fff"/>
          <g id="Group_65" data-name="Group 65" transform="translate(167.307 69.818)">
            <rect id="Rectangle_259" data-name="Rectangle 259" width="25.39" height="8.988" fill="#fff"/>
            <rect id="Rectangle_260" data-name="Rectangle 260" width="13.996" height="130.117" transform="translate(5.697 8.988)" fill="#fff"/>
          </g>
          <g id="Group_66" data-name="Group 66" transform="translate(218.967 69.818)">
            <rect id="Rectangle_261" data-name="Rectangle 261" width="25.39" height="8.988" fill="#fff"/>
            <rect id="Rectangle_262" data-name="Rectangle 262" width="13.996" height="130.117" transform="translate(5.697 8.988)" fill="#fff"/>
          </g>
          <path id="Rectangle_263" data-name="Rectangle 263" d="M1.46,0H15.069a1.376,1.376,0,0,1,1.376,1.376v24.3a0,0,0,0,1,0,0H0a0,0,0,0,1,0,0V1.46A1.46,1.46,0,0,1,1.46,0Z" transform="translate(58.105 100.913)" fill="#244fb5"/>
          <path id="Rectangle_264" data-name="Rectangle 264" d="M1.46,0H15.07a1.375,1.375,0,0,1,1.375,1.375v24.3a0,0,0,0,1,0,0H0a0,0,0,0,1,0,0V1.46A1.46,1.46,0,0,1,1.46,0Z" transform="translate(58.105 156.043)" fill="#244fb5"/>
          <path id="Rectangle_265" data-name="Rectangle 265" d="M1.46,0H15.07a1.375,1.375,0,0,1,1.375,1.375v24.3a0,0,0,0,1,0,0H0a0,0,0,0,1,0,0V1.46A1.46,1.46,0,0,1,1.46,0Z" transform="translate(197.844 100.913)" fill="#244fb5"/>
          <path id="Rectangle_266" data-name="Rectangle 266" d="M1.459,0h13.61a1.376,1.376,0,0,1,1.376,1.376v24.3a0,0,0,0,1,0,0H0a0,0,0,0,1,0,0V1.459A1.459,1.459,0,0,1,1.459,0Z" transform="translate(197.766 156.043)" fill="#244fb5"/>
          <path id="Path_345" data-name="Path 345" d="M2428.474,1355.446a7.718,7.718,0,0,1,7-3.67c5.368.2,7,3.67,7,3.67v-5.874h-14Z" transform="translate(-2396.575 -1270.765)" fill="#dceaff"/>
          <path id="Path_346" data-name="Path 346" d="M2696.483,1355.446a7.718,7.718,0,0,1,7-3.67c5.368.2,7,3.67,7,3.67v-5.874h-14Z" transform="translate(-2609.722 -1270.765)" fill="#dceaff"/>
          <path id="Path_347" data-name="Path 347" d="M3117.791,1355.446a7.718,7.718,0,0,1,7-3.67c5.368.2,7,3.67,7,3.67v-5.874h-14Z" transform="translate(-2944.787 -1270.765)" fill="#dceaff"/>
          <path id="Path_348" data-name="Path 348" d="M3370.157,1355.446a7.719,7.719,0,0,1,7-3.67c5.368.2,7,3.67,7,3.67v-5.874h-14Z" transform="translate(-3145.493 -1270.765)" fill="#dceaff"/>
          <rect id="Rectangle_267" data-name="Rectangle 267" width="25.39" height="1.566" transform="translate(26.202 69.806)" fill="#dceaff"/>
          <rect id="Rectangle_268" data-name="Rectangle 268" width="25.39" height="1.566" transform="translate(81.064 69.806)" fill="#dceaff"/>
          <rect id="Rectangle_269" data-name="Rectangle 269" width="25.39" height="1.566" transform="translate(167.307 69.806)" fill="#dceaff"/>
          <rect id="Rectangle_270" data-name="Rectangle 270" width="25.39" height="1.566" transform="translate(218.967 69.806)" fill="#dceaff"/>
          <path id="Path_349" data-name="Path 349" d="M2930.905,1026.326l87.74,46.329,7.012.01-91.848-47.788Z" transform="translate(-2796.157 -1012.537)" fill="#3e80ce"/>
          <g id="Group_69" data-name="Group 69" transform="translate(57.518 100.327)">
            <g id="Group_68" data-name="Group 68">
              <path id="Path_350" data-name="Path 350" d="M2571.247,1481.554h-17.619V1463a8.31,8.31,0,0,1,8.3-8.3h1.464a7.864,7.864,0,0,1,7.854,7.854Zm-16.445-1.175h15.27v-17.825a6.688,6.688,0,0,0-6.68-6.68h-1.464A7.134,7.134,0,0,0,2554.8,1463Z" transform="translate(-2553.628 -1454.7)" fill="#fff"/>
            </g>
            <rect id="Rectangle_271" data-name="Rectangle 271" width="16.049" height="1.109" transform="translate(0.715 8.101)" fill="#fff"/>
            <rect id="Rectangle_272" data-name="Rectangle 272" width="1.079" height="17.517" transform="translate(8.2 8.656)" fill="#fff"/>
          </g>
          <g id="Group_71" data-name="Group 71" transform="translate(197.022 100.327)">
            <g id="Group_70" data-name="Group 70">
              <path id="Path_351" data-name="Path 351" d="M3252.743,1481.554h-17.619V1463a8.31,8.31,0,0,1,8.3-8.3h1.464a7.864,7.864,0,0,1,7.855,7.854Zm-16.445-1.175h15.271v-17.825a6.688,6.688,0,0,0-6.68-6.68h-1.464A7.134,7.134,0,0,0,3236.3,1463Z" transform="translate(-3235.124 -1454.7)" fill="#fff"/>
            </g>
            <rect id="Rectangle_273" data-name="Rectangle 273" width="16.049" height="1.109" transform="translate(0.715 8.101)" fill="#fff"/>
            <rect id="Rectangle_274" data-name="Rectangle 274" width="1.079" height="17.517" transform="translate(8.2 8.656)" fill="#fff"/>
          </g>
          <g id="Group_73" data-name="Group 73" transform="translate(197.179 155.456)">
            <g id="Group_72" data-name="Group 72">
              <path id="Path_352" data-name="Path 352" d="M3253.509,1750.87h-17.619v-18.553a8.31,8.31,0,0,1,8.3-8.3h1.464a7.863,7.863,0,0,1,7.854,7.854Zm-16.445-1.174h15.27V1731.87a6.688,6.688,0,0,0-6.68-6.68h-1.464a7.134,7.134,0,0,0-7.126,7.126Z" transform="translate(-3235.889 -1724.016)" fill="#fff"/>
            </g>
            <rect id="Rectangle_275" data-name="Rectangle 275" width="16.049" height="1.109" transform="translate(0.715 8.101)" fill="#fff"/>
            <rect id="Rectangle_276" data-name="Rectangle 276" width="1.079" height="17.517" transform="translate(8.2 8.656)" fill="#fff"/>
          </g>
          <g id="Group_75" data-name="Group 75" transform="translate(57.448 155.456)">
            <g id="Group_74" data-name="Group 74">
              <path id="Path_353" data-name="Path 353" d="M2570.907,1750.87h-17.619v-18.553a8.31,8.31,0,0,1,8.3-8.3h1.463a7.863,7.863,0,0,1,7.855,7.854Zm-16.445-1.174h15.27V1731.87a6.688,6.688,0,0,0-6.68-6.68h-1.463a7.134,7.134,0,0,0-7.126,7.126Z" transform="translate(-2553.288 -1724.016)" fill="#fff"/>
            </g>
            <rect id="Rectangle_277" data-name="Rectangle 277" width="16.049" height="1.109" transform="translate(0.715 8.101)" fill="#fff"/>
            <rect id="Rectangle_278" data-name="Rectangle 278" width="1.079" height="17.517" transform="translate(8.2 8.656)" fill="#fff"/>
          </g>
          <g id="Group_76" data-name="Group 76" transform="translate(58.333 93.619)">
            <path id="Path_354" data-name="Path 354" d="M2576.528,1422.453a18.323,18.323,0,0,1,8.954,0l-1.892,4.709a22.023,22.023,0,0,0-5.154,0Z" transform="translate(-2572.655 -1421.93)" fill="#b3d2f6"/>
            <path id="Path_355" data-name="Path 355" d="M2562.7,1432.525l-2.047-3.994a7.361,7.361,0,0,0-3.041,1.328l3.4,3.087Z" transform="translate(-2557.608 -1427.18)" fill="#b3d2f6"/>
            <path id="Path_356" data-name="Path 356" d="M2614.291,1432.8l1.865-3.949a5.594,5.594,0,0,1,3.042,1.328l-3.373,3.022Z" transform="translate(-2602.688 -1427.432)" fill="#b3d2f6"/>
          </g>
          <g id="Group_77" data-name="Group 77" transform="translate(58.333 145.755)">
            <path id="Path_357" data-name="Path 357" d="M2576.528,1677.415s3.513-1.781,8.954,0l-1.892,7.125a14.631,14.631,0,0,0-5.154,0Z" transform="translate(-2572.655 -1676.623)" fill="#b3d2f6"/>
            <path id="Path_358" data-name="Path 358" d="M2562.7,1692.653l-2.047-6.043a6.347,6.347,0,0,0-3.041,2.01l3.4,4.669Z" transform="translate(-2557.608 -1684.566)" fill="#b3d2f6"/>
            <path id="Path_359" data-name="Path 359" d="M2614.291,1693.064l1.865-5.975a4.779,4.779,0,0,1,3.042,2.009l-3.373,4.572Z" transform="translate(-2602.688 -1684.947)" fill="#b3d2f6"/>
          </g>
          <g id="Group_78" data-name="Group 78" transform="translate(197.812 90.661)">
            <path id="Path_360" data-name="Path 360" d="M3257.9,1408.273s3.513-1.781,8.954,0l-1.892,7.124a14.638,14.638,0,0,0-5.154,0Z" transform="translate(-3254.029 -1407.482)" fill="#b3d2f6"/>
            <path id="Path_361" data-name="Path 361" d="M3244.069,1423.512l-2.047-6.043a6.35,6.35,0,0,0-3.041,2.009l3.4,4.67Z" transform="translate(-3238.981 -1415.425)" fill="#b3d2f6"/>
            <path id="Path_362" data-name="Path 362" d="M3295.664,1423.922l1.865-5.975a4.777,4.777,0,0,1,3.042,2.009l-3.373,4.572Z" transform="translate(-3284.061 -1415.805)" fill="#b3d2f6"/>
          </g>
          <g id="Group_79" data-name="Group 79" transform="translate(197.733 145.755)">
            <path id="Path_363" data-name="Path 363" d="M3257.521,1677.415s3.512-1.781,8.954,0l-1.892,7.125a14.627,14.627,0,0,0-5.154,0Z" transform="translate(-3253.648 -1676.623)" fill="#b3d2f6"/>
            <path id="Path_364" data-name="Path 364" d="M3243.687,1692.653l-2.047-6.043a6.347,6.347,0,0,0-3.041,2.01l3.4,4.669Z" transform="translate(-3238.599 -1684.566)" fill="#b3d2f6"/>
            <path id="Path_365" data-name="Path 365" d="M3295.282,1693.064l1.866-5.975a4.777,4.777,0,0,1,3.041,2.009l-3.373,4.572Z" transform="translate(-3283.679 -1684.947)" fill="#b3d2f6"/>
          </g>
          <path id="Path_2973" data-name="Path 2973" d="M.884-17.987v3.272H7.659c0,1.925-1.116,2.541-3.234,2.541H.884V-8.9L9.815,3.147h4.542L5.388-8.9H5.58a6.07,6.07,0,0,0,6.275-5.813h2.271v-3.272H11.855a6.135,6.135,0,0,0-.962-2.541h3.234V-23.8H.884v3.272H4.426c2.117,0,3.234.616,3.234,2.541Z" transform="translate(129.69 49.206)" fill="#fff"/>
        </g>
        <g id="Group_82" data-name="Group 82" transform="translate(382.885 77.47)">
          <path id="Path_366" data-name="Path 366" d="M3547.393,1057.938a4.993,4.993,0,1,1,4.993,4.993A4.993,4.993,0,0,1,3547.393,1057.938Z" transform="translate(-3547.393 -1052.945)" fill="#fff"/>
          <path id="Path_2976" data-name="Path 2976" d="M0,1.055v.594H1.229c0,.349-.2.461-.587.461H0V2.7L1.621,4.89h.824L.817,2.7H.852A1.1,1.1,0,0,0,1.991,1.649H2.4V1.055H1.991A1.113,1.113,0,0,0,1.816.594H2.4V0H0V.594H.643c.384,0,.587.112.587.461Z" transform="matrix(0.966, 0.259, -0.259, 0.966, 4.226, 2.064)" fill="#afcdfb"/>
        </g>
        <g id="Group_84" data-name="Group 84" transform="translate(388.336 50.84)">
          <path id="Path_368" data-name="Path 368" d="M3574.02,930.079a7.227,7.227,0,1,1,7.227,7.227A7.227,7.227,0,0,1,3574.02,930.079Z" transform="translate(-3574.02 -922.852)" fill="#fff"/>
          <path id="Path_2975" data-name="Path 2975" d="M0,1.867V2.918H2.176c0,.618-.359.816-1.039.816H0V4.786L2.869,8.656H4.328L1.447,4.786h.062A1.95,1.95,0,0,0,3.524,2.918h.73V1.867h-.73a1.971,1.971,0,0,0-.309-.816H4.254V0H0V1.051H1.138c.68,0,1.039.2,1.039.816Z" transform="translate(3.31 4.63) rotate(-30)" fill="#afcdfb"/>
        </g>
        <g id="Group_86" data-name="Group 86" transform="translate(352.012 22.74)">
          <circle id="Ellipse_4" data-name="Ellipse 4" cx="13.436" cy="13.436" r="13.436" transform="translate(0 26.774) rotate(-85.136)" fill="#fff"/>
          <path id="Path_2974" data-name="Path 2974" d="M0,2.787V4.355H3.248c0,.923-.535,1.218-1.55,1.218H0V7.142l4.281,5.776H6.459l-4.3-5.776h.092A2.91,2.91,0,0,0,5.26,4.355H6.348V2.787H5.26A2.941,2.941,0,0,0,4.8,1.569h1.55V0H0V1.569H1.7c1.015,0,1.55.3,1.55,1.218Z" transform="matrix(0.966, 0.259, -0.259, 0.966, 12.798, 7.811)" fill="#afcdfb"/>
        </g>
        <g id="Group_127" data-name="Group 127" transform="translate(238.939 161.129)">
          <g id="Group_122" data-name="Group 122" transform="translate(7.181 27.611)">
            <path id="Path_460" data-name="Path 460" d="M3053.622,1712.134l1.234,1s3.376-1.211,4.138,2.8c0,0,.2,1.71-.88,1.713a21.589,21.589,0,0,0-2.169-.142,2.775,2.775,0,0,1-3.029-2.008l-.734-1.054Z" transform="translate(-3016.788 -1688.466)" fill="#ea8e50"/>
            <path id="Path_461" data-name="Path 461" d="M2915.974,1622.331a2.523,2.523,0,0,0,.905-1.788s-11.4-9.334-12.557-10.094a140.652,140.652,0,0,1-13.109-12.5c-1.947-2.251-4.358-1.377-7.117-.586l-2.272.652a3.8,3.8,0,0,0-1.206,6.489c6.34,5.251,16.887,11.158,18.86,12.4,4.9,3.082,14.488,6.743,14.488,6.743A6.078,6.078,0,0,0,2915.974,1622.331Z" transform="translate(-2879.279 -1596.512)" fill="#1e3d70"/>
          </g>
          <path id="Path_462" data-name="Path 462" d="M3107.949,2002.794a8.6,8.6,0,0,0,7.006.977s3.419-.779,4.168.926c0,0-5.243,2.663-6.569,3.391a15.859,15.859,0,0,0-2.781,2.085,1.375,1.375,0,0,1-1.991-.154c-.231-.283-.494-.621-.783-1.013-.808-1.1-2.692-4.633-2.692-4.633Z" transform="translate(-3051.063 -1892.016)" fill="#293eb7"/>
          <path id="Path_463" data-name="Path 463" d="M2964.3,1805.585s-1.685,3.885-5.573,3.171a108.519,108.519,0,0,1-13.379-13.362,30.238,30.238,0,0,1-4.157-6.5c-3.61-8.357-13.353-20.823-19.547-27.14l15.5-5.607s4.964,9.986,11.569,22.252C2953.47,1787.24,2959.081,1797.261,2964.3,1805.585Z" transform="translate(-2905.79 -1695.861)" fill="#3a4ace"/>
          <path id="Path_464" data-name="Path 464" d="M2948.71,1778.4l-3.363,16.992a30.238,30.238,0,0,1-4.157-6.5c-3.61-8.357-13.353-20.823-19.547-27.14l15.5-5.607S2942.105,1766.136,2948.71,1778.4Z" transform="translate(-2905.79 -1695.861)" fill="#293eb7"/>
          <path id="Path_465" data-name="Path 465" d="M2970.323,2007.205s-.169,3.1,3.589,3.513c0,0,2.147.011,2.153,1.984l-10.922.035a8.508,8.508,0,0,1-.394-2.5c-.059-1.309,1.269-4.731,1.269-4.731Z" transform="translate(-2940.072 -1894.173)" fill="#293eb7"/>
          <path id="Path_466" data-name="Path 466" d="M2914.027,1753.478s6.9,7.587,11.287,21.254c2.385,7.437-4.371,26.134-5.687,32.63,0,0-4.532.384-7.63-.813,0,0-.236-13.417,1.577-23.758,1.014-5.788-9.091-12.378-13.506-22.835-3-7.115.65-6.994,5.141-7.165Z" transform="translate(-2887.759 -1693.188)" fill="#3a4ace"/>
          <path id="Path_467" data-name="Path 467" d="M2888.108,1554.427c-3.842,2.169-11.706.169-11.706.169a10.954,10.954,0,0,0,1.743-9.531l3.016,1.532,3.239,1.645a26.916,26.916,0,0,1,.355,2.9c.037.48.07,1.017.093,1.6A10.075,10.075,0,0,1,2888.108,1554.427Z" transform="translate(-2869.809 -1527.985)" fill="#ffb07b"/>
          <path id="Path_468" data-name="Path 468" d="M2890.95,1617.105c0,.675-.778,1-.943,1.031-1.549.283-5.875,1.966-9.772,2.352a31.255,31.255,0,0,1-9.675-.655c-.443-.089-1.483-.369-1.557-.794-.092-.464-12.91-26.13-2.946-37.156.234-.259,2.2.207,4,.634a7.385,7.385,0,0,0,4.545-.371l1.687.888c2.072,1.154,5.991,5.255,6.45,8.473.233,1.637,1.168,2.849,1.439,4.288q.151.8.308,1.56.307,1.491.631,2.84c.586,2.434,1.2,4.529,1.812,6.339.646,1.922,1.281,3.521,1.847,4.858.735,1.734,1.355,3.03,1.744,4.022A4.959,4.959,0,0,1,2890.95,1617.105Z" transform="translate(-2858.566 -1557.208)" fill="#d2e3fc"/>
          <path id="Path_469" data-name="Path 469" d="M2905.646,1649.258a50.363,50.363,0,0,1-24.36-24.894s14.7,5.423,18.327,6.835q.306,1.491.631,2.84c.585,2.434,1.2,4.529,1.812,6.339.646,1.922,1.28,3.521,1.847,4.858C2904.637,1646.97,2905.258,1648.266,2905.646,1649.258Z" transform="translate(-2873.693 -1591.052)" fill="#a4c8fc"/>
          <path id="Path_470" data-name="Path 470" d="M2892.99,1557.1a8.084,8.084,0,0,1-6.234-2.907,30.01,30.01,0,0,0,2.639-1.642l3.24,1.646A26.875,26.875,0,0,1,2892.99,1557.1Z" transform="translate(-2878.044 -1533.936)" fill="#ea8e50"/>
          <path id="Path_471" data-name="Path 471" d="M2880.817,1518.386s-5.724,4.108-8.227.5-4.927-5.5-1.379-8.276,5.221-1.9,6.349-.9S2882.242,1517.224,2880.817,1518.386Z" transform="translate(-2864.262 -1499.104)" fill="#ffb07b"/>
          <path id="Path_472" data-name="Path 472" d="M2858.1,1488.4a9.2,9.2,0,0,0-.667-2.36s-.359,1.488-3.078,1.283-7.029.267-8.465,3.366a6.426,6.426,0,0,0-.246.608,7.167,7.167,0,0,1-.323-1.716,5.294,5.294,0,0,0,0,3h0c-.008.048-.014.1-.021.146a6.051,6.051,0,0,0-1.1,2.084,1.89,1.89,0,0,1,1.016-.9c-.012,2.411.966,4.768,2.682,5.47,2.51,1.026,2.49.243,5.013,1.917,0,0,.677-.84.216-1.4s-2.206-1.385-1.232-2.206,1.334.1,1.693-.462-1.437-2.206.873-3.745S2858.306,1489.786,2858.1,1488.4Z" transform="translate(-2844.197 -1481.044)" fill="#293eb7"/>
          <g id="Group_125" data-name="Group 125" transform="translate(17.992)">
            <path id="Path_473" data-name="Path 473" d="M2932.979,1496.5a27.908,27.908,0,1,1,33.982,20.072A27.908,27.908,0,0,1,2932.979,1496.5Z" transform="translate(-2932.092 -1461.629)" fill="#ffd800"/>
            <g id="Group_123" data-name="Group 123" transform="translate(2.559 2.796)">
              <path id="Path_474" data-name="Path 474" d="M2976.367,1525.351a25.427,25.427,0,1,1,15.556-11.693A25.259,25.259,0,0,1,2976.367,1525.351Zm-12.295-47.78a23.91,23.91,0,1,0,29.114,17.2A23.938,23.938,0,0,0,2964.072,1477.571Z" transform="translate(-2944.593 -1475.289)" fill="#ffb100"/>
            </g>
            <path id="Path_2972" data-name="Path 2972" d="M.884-19.222v2.577H6.22c0,1.516-.879,2-2.547,2H.884v2.577l7.034,9.49H11.5l-7.064-9.49h.152a4.781,4.781,0,0,0,4.942-4.578h1.789v-2.577H9.525a4.832,4.832,0,0,0-.758-2h2.547V-23.8H.884v2.577H3.673c1.668,0,2.547.485,2.547,2Z" transform="translate(21.99 41.279)" fill="#fff"/>
          </g>
          <g id="Group_126" data-name="Group 126" transform="translate(4.907 28.801)">
            <path id="Path_476" data-name="Path 476" d="M3053.4,1723.705a19.1,19.1,0,0,0,4.826.99,11.591,11.591,0,0,0,4.838-2.03,4.48,4.48,0,0,0-3.388-.676c-2.009.254-2.418-.048-1.794-.3.7-.281,1.2-.7,1.032-.969-.094-.148-1.1.172-1.448.287s-1.2-.2-1.922.317a8.483,8.483,0,0,1-2.266.6Z" transform="translate(-3015.386 -1696.455)" fill="#ffb07b"/>
            <path id="Path_477" data-name="Path 477" d="M2907.394,1628.579c.54-1.523.787-2.212.787-2.212s-12.054-9.329-13.279-10.124c-.834-.542-9.153-6.438-13.253-11.094a8.334,8.334,0,0,0-8.17-2.6l-2.466.583a3.688,3.688,0,0,0-1.482,6.449c6.682,5.442,17.878,11.667,19.969,12.968,5.191,3.229,16.6,7.649,16.6,7.649A2.907,2.907,0,0,0,2907.394,1628.579Z" transform="translate(-2868.17 -1602.324)" fill="#d2e3fc"/>
          </g>
        </g>
        <g id="Group_130" data-name="Group 130" transform="translate(211.92 252.509)">
          <circle id="Ellipse_6" data-name="Ellipse 6" cx="13.565" cy="13.565" r="13.565" fill="#ffd800"/>
          <g id="Group_128" data-name="Group 128" transform="translate(1.206 1.366)">
            <path id="Path_478" data-name="Path 478" d="M2730.457,1939.428a12.359,12.359,0,1,1,8.739-3.62A12.278,12.278,0,0,1,2730.457,1939.428Zm0-23.981a11.622,11.622,0,1,0,11.622,11.622A11.635,11.635,0,0,0,2730.457,1915.447Z" transform="translate(-2718.098 -1914.71)" fill="#ffb100"/>
          </g>
        </g>
      </g>
    </g>
  </g>
</svg>
